<?xml version="1.0" encoding="utf-8"?>
<!-- Generator: Adobe Illustrator 21.0.0, SVG Export Plug-In . SVG Version: 6.00 Build 0)  -->
<svg version="1.1" id="Capa_1" xmlns="http://www.w3.org/2000/svg" xmlns:xlink="http://www.w3.org/1999/xlink" x="0px" y="0px"
	 viewBox="0 0 163 33.5" style="enable-background:new 0 0 163 33.5;" xml:space="preserve">
<style type="text/css">
	.st0{fill:#D32F2F;}
	.st1{fill:#F44336;}
	.st2{fill:#2196F3;}
	.st3{fill:#1565C0;}
	.st4{fill:#1976D2;}
	.st5{fill:#607D8B;}
</style>
<g id="Capa_20">
	<path class="st0" d="M7.9,7.6c0,0-5.3,14.5-6.4,17.2C3.5,28,5.8,29,5.8,29s1.6-4.5,2.1-6.3c-1.8-1.7-1.6-3.8-1.6-3.8
		s0.1-5.1,5.3-5.3c5.3,0.3,5.3,5.3,5.3,5.3s0,2.5-1.6,3.8c2.1,2.1,4.4,4.6,4.4,4.6s1.1-0.9,2-2.5c-1.1-2.8-5.3-14.3-6.4-17.1
		C11.1,6.4,7.9,7.6,7.9,7.6z"/>
	<g>
		<g>
			<path class="st1" d="M7.9,15c0.8-0.8,2-1.5,3.8-1.5c5.3,0.3,5.3,5.3,5.3,5.3s0,2.5-1.6,3.8c2.1,2.1,4.4,4.6,4.4,4.6
				s1.1-0.9,2-2.5c-1.1-2.8-5.3-14.3-6.4-17.1c-4.3-1.3-7.5,0-7.5,0S7,10,5.9,13.1L7.9,15z"/>
		</g>
	</g>
	<path class="st2" d="M15.4,18.8c0,1-0.4,2-1.1,2.6c-0.8-0.8-4.2-4.2-5.3-5.3c0.7-0.7,1.6-1.1,2.6-1.1
		C13.7,15.1,15.4,16.8,15.4,18.8z"/>
	<g>
		<g>
			<path class="st3" d="M13.2,20.4c-0.4,0.4-0.9,0.6-1.5,0.6c-1.2,0-2.1-1-2.1-2.1c0-0.6,0.2-1.1,0.6-1.5L13.2,20.4z"/>
		</g>
	</g>
	<g>
		<g>
			<path class="st4" d="M10.2,17.3c0.4-0.4,0.9-0.6,1.5-0.6c1.2,0,2.1,1,2.1,2.1c0,0.6-0.2,1.1-0.6,1.5L10.2,17.3z"/>
		</g>
	</g>
	<g>
		<path class="st5" d="M37.6,24c-0.2-0.5-0.4-1.1-0.6-1.6c-0.2-0.5-0.3-1-0.5-1.5h-5.4c-0.2,0.5-0.4,1-0.5,1.5
			c-0.2,0.5-0.4,1-0.6,1.6h-1.1c0.4-1.2,0.8-2.2,1.2-3.2c0.4-1,0.7-1.9,1.1-2.8s0.7-1.7,1.1-2.6c0.4-0.8,0.7-1.6,1.1-2.5h1
			c0.4,0.8,0.8,1.6,1.1,2.5c0.4,0.8,0.7,1.7,1.1,2.6c0.4,0.9,0.7,1.8,1.1,2.8c0.4,1,0.8,2.1,1.2,3.2H37.6z M33.8,14.2
			C33.4,15.1,33,16,32.6,17c-0.4,0.9-0.8,2-1.2,3.1h4.7C35.7,19,35.3,18,34.9,17C34.6,16,34.2,15.1,33.8,14.2z"/>
		<path class="st5" d="M42.4,24.1c-0.4,0-0.7-0.1-0.9-0.1c-0.3-0.1-0.5-0.2-0.7-0.4s-0.3-0.4-0.4-0.6c-0.1-0.3-0.1-0.6-0.1-1V11.8
			l1-0.2V22c0,0.3,0,0.5,0.1,0.6c0,0.2,0.1,0.3,0.2,0.4c0.1,0.1,0.2,0.2,0.4,0.2s0.3,0.1,0.6,0.1L42.4,24.1z"/>
		<path class="st5" d="M43.9,19.9c0-0.7,0.1-1.4,0.3-1.9s0.5-1,0.8-1.4s0.7-0.6,1.2-0.8c0.4-0.2,0.9-0.3,1.3-0.3c1,0,1.8,0.3,2.4,1
			c0.6,0.7,0.9,1.7,0.9,3.1c0,0.1,0,0.2,0,0.3c0,0.1,0,0.2,0,0.2H45c0,1,0.3,1.8,0.8,2.3s1.2,0.8,2.2,0.8c0.6,0,1-0.1,1.3-0.2
			s0.6-0.2,0.7-0.3l0.2,0.9c-0.1,0.1-0.4,0.2-0.8,0.3s-0.9,0.2-1.4,0.2c-0.7,0-1.3-0.1-1.9-0.3c-0.5-0.2-0.9-0.5-1.3-0.9
			c-0.3-0.4-0.6-0.8-0.7-1.4C44,21.1,43.9,20.5,43.9,19.9z M49.8,19.2c0-0.9-0.2-1.5-0.6-2c-0.4-0.5-0.9-0.7-1.6-0.7
			c-0.4,0-0.7,0.1-1,0.2s-0.5,0.3-0.8,0.6c-0.2,0.3-0.4,0.5-0.5,0.9s-0.2,0.7-0.2,1H49.8z"/>
		<path class="st5" d="M51.6,27c-0.1,0-0.3,0-0.4,0c-0.2,0-0.3-0.1-0.4-0.1l0.1-0.8c0.1,0,0.2,0,0.3,0.1s0.3,0,0.4,0
			c0.6,0,1-0.2,1.3-0.5c0.2-0.4,0.3-0.9,0.3-1.6v-8.2h1v8.2c0,1-0.2,1.8-0.6,2.3C53.2,26.7,52.5,27,51.6,27z M54.4,13.2
			c0,0.2-0.1,0.4-0.2,0.6C54.1,14,53.9,14,53.7,14s-0.4-0.1-0.5-0.2c-0.1-0.1-0.2-0.3-0.2-0.6c0-0.2,0.1-0.4,0.2-0.6
			c0.1-0.1,0.3-0.2,0.5-0.2s0.4,0.1,0.5,0.2C54.4,12.8,54.4,13,54.4,13.2z"/>
		<path class="st5" d="M59.5,15.5c0.5,0,1,0.1,1.4,0.2c0.4,0.2,0.7,0.4,0.9,0.6c0.2,0.3,0.4,0.6,0.5,1s0.2,0.8,0.2,1.2v5.2
			c-0.1,0-0.3,0.1-0.5,0.1S61.5,24,61.3,24c-0.3,0-0.6,0.1-0.9,0.1c-0.3,0-0.7,0-1,0c-0.4,0-0.8,0-1.2-0.1s-0.7-0.2-1-0.5
			s-0.5-0.5-0.6-0.8c-0.2-0.3-0.2-0.7-0.2-1.2c0-0.4,0.1-0.8,0.3-1.2c0.2-0.3,0.4-0.6,0.7-0.8c0.3-0.2,0.7-0.4,1.1-0.5
			c0.4-0.1,0.9-0.1,1.4-0.1c0.1,0,0.3,0,0.5,0s0.3,0,0.5,0.1c0.2,0,0.3,0.1,0.4,0.1c0.1,0,0.2,0.1,0.2,0.1v-0.5c0-0.3,0-0.6-0.1-0.8
			c0-0.3-0.1-0.5-0.3-0.7c-0.1-0.2-0.3-0.4-0.6-0.5s-0.6-0.2-1-0.2c-0.6,0-1.1,0-1.4,0.1c-0.3,0.1-0.5,0.2-0.7,0.2l-0.1-0.9
			c0.2-0.1,0.5-0.2,0.8-0.2C58.5,15.6,58.9,15.5,59.5,15.5z M59.5,23.2c0.4,0,0.8,0,1.1,0s0.6-0.1,0.8-0.1v-2.9
			c-0.1-0.1-0.3-0.1-0.6-0.2s-0.6-0.1-1.1-0.1c-0.3,0-0.5,0-0.8,0.1c-0.3,0-0.5,0.1-0.8,0.2c-0.2,0.1-0.4,0.3-0.6,0.5
			c-0.1,0.2-0.2,0.5-0.2,0.8s0.1,0.6,0.2,0.8c0.1,0.2,0.2,0.4,0.4,0.5s0.4,0.2,0.7,0.3C58.9,23.2,59.2,23.2,59.5,23.2z"/>
		<path class="st5" d="M65.1,16c0.3-0.1,0.7-0.2,1.2-0.3s1.2-0.2,1.9-0.2c0.6,0,1.2,0.1,1.6,0.3s0.8,0.4,1,0.8
			c0.3,0.3,0.4,0.7,0.5,1.2s0.2,1,0.2,1.6V24h-1v-4.3c0-0.6,0-1.1-0.1-1.5s-0.2-0.7-0.4-1c-0.2-0.3-0.4-0.4-0.7-0.6
			c-0.3-0.1-0.7-0.2-1.1-0.2c-0.5,0-0.9,0-1.3,0.1s-0.6,0.1-0.7,0.1V24h-1L65.1,16L65.1,16z"/>
		<path class="st5" d="M80.8,23.7c-0.3,0.1-0.7,0.2-1.2,0.3c-0.5,0.1-1.1,0.1-1.8,0.1c-0.6,0-1.2-0.1-1.7-0.3s-0.9-0.5-1.3-0.9
			s-0.6-0.8-0.8-1.4s-0.3-1.1-0.3-1.8c0-0.6,0.1-1.2,0.2-1.7c0.2-0.5,0.4-1,0.7-1.4c0.3-0.4,0.7-0.7,1.2-0.9s1-0.3,1.6-0.3
			c0.5,0,1,0.1,1.4,0.2s0.7,0.3,0.9,0.4v-4.4l1-0.2v12.3H80.8z M79.7,17.2c-0.1-0.1-0.2-0.2-0.4-0.2c-0.1-0.1-0.3-0.2-0.5-0.2
			c-0.2-0.1-0.4-0.1-0.6-0.2c-0.2,0-0.5-0.1-0.7-0.1c-0.5,0-0.9,0.1-1.3,0.3c-0.3,0.2-0.6,0.4-0.8,0.7c-0.2,0.3-0.4,0.7-0.5,1.1
			s-0.1,0.8-0.1,1.3c0,1.1,0.3,1.9,0.8,2.5s1.3,0.9,2.2,0.9c0.5,0,0.9,0,1.2-0.1c0.3,0,0.6-0.1,0.7-0.2C79.7,23,79.7,17.2,79.7,17.2
			z"/>
		<path class="st5" d="M86.3,15.6c0.3,0,0.7,0,1,0.1s0.5,0.1,0.6,0.2l-0.2,0.9c-0.1,0-0.3-0.1-0.5-0.1c-0.3,0-0.6-0.1-1-0.1
			s-0.8,0-1.1,0.1s-0.5,0.1-0.5,0.2V24h-1v-7.9c0.3-0.1,0.6-0.2,1.1-0.4S85.7,15.6,86.3,15.6z"/>
		<path class="st5" d="M96.6,19.9c0,0.7-0.1,1.2-0.3,1.8c-0.2,0.5-0.4,1-0.8,1.4c-0.3,0.4-0.7,0.7-1.2,0.9s-1,0.3-1.5,0.3
			s-1.1-0.1-1.5-0.3c-0.5-0.2-0.9-0.5-1.2-0.9c-0.3-0.4-0.6-0.8-0.8-1.4c-0.2-0.5-0.3-1.1-0.3-1.8c0-0.7,0.1-1.2,0.3-1.8
			s0.4-1,0.8-1.4c0.3-0.4,0.7-0.7,1.2-0.9c0.5-0.2,1-0.3,1.5-0.3s1.1,0.1,1.5,0.3c0.4,0.2,0.9,0.5,1.2,0.9c0.3,0.4,0.6,0.8,0.8,1.4
			C96.5,18.6,96.6,19.2,96.6,19.9z M95.4,19.9c0-1-0.2-1.9-0.7-2.5s-1.1-0.9-2-0.9s-1.5,0.3-2,0.9S90,18.8,90,19.9s0.2,1.9,0.7,2.5
			s1.1,0.9,2,0.9s1.5-0.3,2-0.9C95.2,21.7,95.4,20.9,95.4,19.9z"/>
		<path class="st5" d="M111.3,18.4c0,0.9-0.1,1.8-0.4,2.5s-0.7,1.3-1.3,1.8c-0.5,0.5-1.2,0.8-1.9,1.1c-0.7,0.2-1.6,0.4-2.5,0.4
			c-0.4,0-0.9,0-1.4-0.1c-0.5,0-0.9-0.1-1.3-0.2V13.1c0.4-0.1,0.8-0.2,1.3-0.2s1-0.1,1.4-0.1c0.9,0,1.7,0.1,2.5,0.4
			c0.7,0.2,1.4,0.6,1.9,1.1s1,1.1,1.3,1.8C111.2,16.8,111.3,17.5,111.3,18.4z M103.6,23c0.1,0,0.2,0,0.5,0.1c0.3,0,0.7,0,1.3,0
			c0.8,0,1.5-0.1,2.1-0.3c0.6-0.2,1.1-0.5,1.5-0.9s0.7-0.9,0.9-1.5c0.2-0.6,0.3-1.2,0.3-2c0-0.7-0.1-1.4-0.3-2
			c-0.2-0.6-0.5-1.1-0.9-1.5s-0.9-0.7-1.5-0.9s-1.3-0.3-2.1-0.3c-0.6,0-1,0-1.3,0s-0.4,0.1-0.5,0.1V23z"/>
		<path class="st5" d="M113.2,19.9c0-0.7,0.1-1.4,0.3-1.9s0.5-1,0.8-1.4s0.7-0.6,1.2-0.8c0.4-0.2,0.9-0.3,1.3-0.3c1,0,1.8,0.3,2.4,1
			c0.6,0.7,0.9,1.7,0.9,3.1c0,0.1,0,0.2,0,0.3c0,0.1,0,0.2,0,0.2h-5.8c0,1,0.3,1.8,0.8,2.3s1.2,0.8,2.2,0.8c0.6,0,1-0.1,1.3-0.2
			s0.6-0.2,0.7-0.3l0.2,0.9c-0.2,0.1-0.4,0.2-0.8,0.3c-0.4,0.1-0.9,0.2-1.4,0.2c-0.7,0-1.3-0.1-1.9-0.3s-0.9-0.5-1.3-0.9
			c-0.3-0.4-0.6-0.8-0.7-1.4C113.3,21.1,113.2,20.5,113.2,19.9z M119.1,19.2c0-0.9-0.2-1.5-0.6-2s-0.9-0.7-1.6-0.7
			c-0.4,0-0.7,0.1-1,0.2s-0.5,0.3-0.8,0.6s-0.4,0.5-0.5,0.9c-0.1,0.3-0.2,0.7-0.2,1H119.1z"/>
		<path class="st5" d="M124.6,24.1c-0.4,0-0.7-0.1-0.9-0.1c-0.3-0.1-0.5-0.2-0.7-0.4c-0.2-0.2-0.3-0.4-0.4-0.6
			c-0.1-0.3-0.1-0.6-0.1-1V11.8l1-0.2V22c0,0.3,0,0.5,0.1,0.6s0.1,0.3,0.2,0.4s0.2,0.2,0.4,0.2c0.2,0,0.3,0.1,0.6,0.1L124.6,24.1z"
			/>
		<path class="st5" d="M131.9,23c-0.1,0.1-0.2,0.1-0.3,0.2s-0.3,0.1-0.5,0.2s-0.4,0.1-0.6,0.2s-0.5,0.1-0.8,0.1
			c-0.5,0-0.9-0.1-1.4-0.2c-0.4-0.1-0.8-0.4-1.2-0.7s-0.6-0.7-0.8-1.2c-0.2-0.5-0.3-1.1-0.3-1.8c0-0.6,0.1-1.1,0.3-1.6
			c0.2-0.5,0.4-0.9,0.8-1.3c0.3-0.4,0.7-0.7,1.2-0.9c0.5-0.2,1-0.3,1.6-0.3c0.8,0,1.4,0.1,1.8,0.2c0.5,0.1,0.8,0.2,1.1,0.3v7.6
			c0,1.2-0.3,2.1-1,2.6s-1.6,0.8-2.9,0.8c-0.5,0-1,0-1.4-0.1s-0.8-0.2-1.1-0.3l0.2-0.9c0.3,0.1,0.6,0.2,1,0.3
			c0.4,0.1,0.9,0.1,1.3,0.1c1,0,1.7-0.2,2.1-0.6c0.4-0.4,0.7-1,0.7-1.9V23H131.9z M131.9,16.7c-0.2-0.1-0.4-0.1-0.7-0.2
			s-0.7-0.1-1.2-0.1c-0.4,0-0.8,0.1-1.2,0.2s-0.6,0.4-0.9,0.7c-0.2,0.3-0.4,0.6-0.6,1c-0.1,0.4-0.2,0.8-0.2,1.3s0.1,1,0.2,1.4
			s0.3,0.7,0.6,1c0.2,0.2,0.5,0.4,0.8,0.5s0.6,0.2,0.9,0.2c0.5,0,0.9-0.1,1.3-0.2c0.4-0.1,0.7-0.3,0.9-0.5v-5.3H131.9z"/>
		<path class="st5" d="M138.2,15.5c0.5,0,1,0.1,1.4,0.2c0.4,0.2,0.7,0.4,0.9,0.6c0.2,0.3,0.4,0.6,0.5,1s0.2,0.8,0.2,1.2v5.2
			c-0.1,0-0.3,0.1-0.5,0.1s-0.4,0.1-0.7,0.1s-0.6,0.1-0.9,0.1c-0.3,0-0.7,0-1,0c-0.4,0-0.8,0-1.2-0.1s-0.7-0.2-1-0.5
			c-0.3-0.2-0.5-0.5-0.6-0.8c-0.2-0.3-0.2-0.7-0.2-1.2c0-0.4,0.1-0.8,0.3-1.2c0.2-0.3,0.4-0.6,0.7-0.8s0.7-0.4,1.1-0.5
			c0.4-0.1,0.9-0.1,1.4-0.1c0.1,0,0.3,0,0.5,0s0.3,0,0.5,0.1c0.2,0,0.3,0.1,0.4,0.1c0.1,0,0.2,0.1,0.2,0.1v-0.5c0-0.3,0-0.6-0.1-0.8
			c0-0.3-0.1-0.5-0.3-0.7c-0.1-0.2-0.3-0.4-0.6-0.5s-0.6-0.2-1-0.2c-0.6,0-1.1,0-1.4,0.1c-0.3,0.1-0.5,0.2-0.7,0.2l-0.1-0.9
			c0.2-0.1,0.5-0.2,0.8-0.2C137.2,15.6,137.7,15.5,138.2,15.5z M138.3,23.2c0.4,0,0.8,0,1.1,0s0.6-0.1,0.8-0.1v-2.9
			c-0.1-0.1-0.3-0.1-0.6-0.2s-0.6-0.1-1.1-0.1c-0.3,0-0.5,0-0.8,0.1c-0.3,0-0.5,0.1-0.8,0.2c-0.2,0.1-0.4,0.3-0.6,0.5
			c-0.2,0.2-0.2,0.5-0.2,0.8s0.1,0.6,0.2,0.8c0.1,0.2,0.2,0.4,0.4,0.5s0.4,0.2,0.7,0.3C137.7,23.2,138,23.2,138.3,23.2z"/>
		<path class="st5" d="M150.4,23.7c-0.3,0.1-0.7,0.2-1.2,0.3c-0.5,0.1-1.1,0.1-1.8,0.1c-0.6,0-1.2-0.1-1.7-0.3s-0.9-0.5-1.3-0.9
			c-0.4-0.4-0.6-0.8-0.8-1.4s-0.3-1.1-0.3-1.8c0-0.6,0.1-1.2,0.2-1.7c0.2-0.5,0.4-1,0.7-1.4s0.7-0.7,1.2-0.9s1-0.3,1.6-0.3
			c0.5,0,1,0.1,1.4,0.2s0.7,0.3,0.9,0.4v-4.4l1-0.2v12.3H150.4z M149.4,17.2c-0.1-0.1-0.2-0.2-0.4-0.2c-0.1-0.1-0.3-0.2-0.5-0.2
			c-0.2-0.1-0.4-0.1-0.6-0.2c-0.2,0-0.5-0.1-0.7-0.1c-0.5,0-0.9,0.1-1.3,0.3c-0.3,0.2-0.6,0.4-0.8,0.7c-0.2,0.3-0.4,0.7-0.5,1.1
			s-0.1,0.8-0.1,1.3c0,1.1,0.3,1.9,0.8,2.5s1.3,0.9,2.2,0.9c0.5,0,0.9,0,1.2-0.1c0.3,0,0.6-0.1,0.7-0.2L149.4,17.2L149.4,17.2z"/>
		<path class="st5" d="M160.2,19.9c0,0.7-0.1,1.2-0.3,1.8c-0.2,0.5-0.4,1-0.8,1.4c-0.3,0.4-0.7,0.7-1.2,0.9s-1,0.3-1.5,0.3
			s-1.1-0.1-1.5-0.3c-0.5-0.2-0.9-0.5-1.2-0.9s-0.6-0.8-0.8-1.4c-0.2-0.5-0.3-1.1-0.3-1.8c0-0.7,0.1-1.2,0.3-1.8s0.4-1,0.8-1.4
			c0.3-0.4,0.7-0.7,1.2-0.9c0.5-0.2,1-0.3,1.5-0.3s1.1,0.1,1.5,0.3c0.4,0.2,0.9,0.5,1.2,0.9s0.6,0.8,0.8,1.4
			C160.1,18.6,160.2,19.2,160.2,19.9z M159.1,19.9c0-1-0.2-1.9-0.7-2.5s-1.1-0.9-2-0.9s-1.5,0.3-2,0.9s-0.7,1.4-0.7,2.5
			s0.2,1.9,0.7,2.5s1.1,0.9,2,0.9s1.5-0.3,2-0.9C158.9,21.7,159.1,20.9,159.1,19.9z"/>
	</g>
</g>
<g id="Capa_2">
</g>
</svg>
